<?xml version="1.0" encoding="UTF-8" standalone="no"?>
<svg
   version="1.0"
   id="Layer_1"
   xmlns="http://www.w3.org/2000/svg"
   x="0px"
   y="0px"
   viewBox="0 0 103 103"
   width="103"
   height="103">

  <defs>
    <linearGradient id="rainbowCircle" x1="0%" y1="100%" x2="100%" y2="0%">
      <stop offset="0%" style="stop-color:#ff6b6b;stop-opacity:1" />
      <stop offset="20%" style="stop-color:#feca57;stop-opacity:1" />
      <stop offset="40%" style="stop-color:#48dbfb;stop-opacity:1" />
      <stop offset="60%" style="stop-color:#1dd1a1;stop-opacity:1" />
      <stop offset="80%" style="stop-color:#5f27cd;stop-opacity:1" />
      <stop offset="100%" style="stop-color:#ff9ff3;stop-opacity:1" />
    </linearGradient>
  </defs>

  <!-- Rainbow Circle -->
  <circle cx="51.6" cy="51.6" r="51.6" fill="url(#rainbowCircle)" />

  <!-- Handwritten 'm' in circle - white -->
  <path
    d="M 30.026506,86.559353 c -1.017302,-0.241662 -1.787869,-0.887419 -2.143612,-1.796406 -0.545654,-1.394246 -0.158934,-4.812615 1.126179,-9.954732 1.255925,-5.025324 2.459082,-9.096362 5.109736,-17.289458 0.344312,-1.064257 1.654133,-5.2136 1.888607,-5.982859 0.296596,-0.97307 0.598551,-2.708021 0.79743,-4.581811 0.108312,-1.020494 0.246431,-2.186451 0.306932,-2.591018 0.0605,-0.404565 0.178758,-1.341754 0.262796,-2.082641 0.224837,-1.982189 0.649291,-5.218012 0.916787,-6.98913 0.444542,-2.943359 0.753682,-4.198397 1.354756,-5.499991 0.686842,-1.487323 1.771061,-2.655188 2.805126,-3.021538 0.542395,-0.19216 1.381388,-0.270583 1.982594,-0.185316 1.252526,0.17764 1.883508,0.754167 2.211742,2.020866 0.313761,1.21084 -0.05565,3.930951 -0.877141,6.458782 -1.290698,3.971623 -2.036395,5.990995 -2.986916,8.088674 -1.185138,2.61545 -2.712212,6.873258 -2.939609,8.196258 -0.49042,2.853282 0.04972,5.146283 1.578225,6.6999 0.913915,0.928929 2.023939,1.521458 3.413442,1.82209 0.903748,0.195534 2.608483,0.179674 3.407958,-0.03171 1.383427,-0.365777 2.763884,-1.250325 4.377299,-2.804821 3.163126,-3.047616 5.113532,-6.222841 6.797438,-11.066108 0.353971,-1.018094 0.493359,-1.574562 0.749316,-2.991429 0.271014,-1.500218 1.040858,-5.574621 1.51657,-8.026458 0.08082,-0.416528 0.218253,-1.149239 0.305416,-1.628246 0.472088,-2.594388 1.148516,-4.178722 2.330295,-5.458032 0.763841,-0.826879 1.674493,-1.206419 2.894632,-1.206419 1.24359,0 2.138991,0.401576 2.574266,1.154526 0.974305,1.685378 0.683954,4.053139 -1.163626,9.489195 -0.954432,2.808181 -2.572717,6.998752 -3.493593,9.046702 -0.971745,2.161077 -2.201912,5.041664 -2.441809,5.717796 l -0.268706,0.757324 0.09021,1.120423 c 0.212423,2.638199 0.889316,4.086035 2.469149,5.281365 0.932959,0.705895 1.786459,0.982601 3.026274,0.981126 2.426542,-0.0029 4.480731,-1.028876 5.685658,-2.839769 0.811784,-1.220036 1.58443,-3.158397 2.044887,-5.130071 l 0.207813,-0.889855 h 0.356374 0.356373 l 0.04799,0.892492 c 0.0554,1.030319 -0.04881,3.015268 -0.219241,4.175846 -0.345822,2.354993 -1.040859,4.427262 -1.983165,5.91286 -0.701565,1.106055 -1.958204,2.491062 -2.717404,2.994989 -1.555814,1.032691 -4.187858,1.499135 -6.161832,1.091984 -0.603718,-0.124523 -1.72865,-0.689523 -2.178956,-1.094387 -1.477985,-1.328835 -2.187139,-3.341642 -2.360358,-6.699454 -0.08196,-1.588814 0.0522,-3.504923 0.298559,-4.263967 0.05681,-0.175039 0.04587,-0.208265 -0.06857,-0.208265 -0.09667,0 -0.197671,0.148268 -0.348229,0.511194 -0.711765,1.715746 -1.965261,3.867832 -3.142896,5.395934 -0.680786,0.883388 -2.612844,2.822501 -3.483678,3.496397 -2.517073,1.947843 -5.073167,2.951502 -8.060525,3.164993 -1.592379,0.1138 -2.868371,-0.07567 -4.016971,-0.596469 -1.69649,-0.769225 -3.109446,-2.469115 -3.819014,-4.594555 -0.614034,-1.839276 -0.863382,-4.754214 -0.580679,-6.788275 0.05951,-0.428202 0.126068,-0.957467 0.147897,-1.176145 l 0.03969,-0.397595 H 37.651633 37.254872 L 36.96284,53.90253 c -0.705326,1.783387 -1.458627,4.293583 -2.085205,6.948448 -1.027173,4.352223 -1.56307,7.486558 -2.197428,12.852248 -0.310323,2.624858 -0.310577,2.629265 -0.189513,3.294359 0.13956,0.766706 0.417018,1.85334 0.68249,2.672894 0.306093,0.944956 0.565598,2.296449 0.565598,2.945615 0,1.819491 -0.751236,3.258298 -2.006909,3.84374 -0.402074,0.187462 -1.15114,0.231172 -1.705369,0.09951 z"
    fill="#ffffff" />
</svg>
